<?xml version="1.0" standalone="no"?>
<!DOCTYPE svg PUBLIC "-//W3C//DTD SVG 20010904//EN"
 "http://www.w3.org/TR/2001/REC-SVG-20010904/DTD/svg10.dtd">
<svg version="1.0" xmlns="http://www.w3.org/2000/svg"
 width="1080.000000pt" height="1080.000000pt" viewBox="0 0 1080.000000 1080.000000"
 preserveAspectRatio="xMidYMid meet">

<g transform="translate(0.000000,1080.000000) scale(0.100000,-0.100000)"
fill="#000000" stroke="none">
<path d="M1080 9700 c0 -20 11 -20 4233 -22 3918 -3 4234 -4 4262 -20 45 -24
85 -68 106 -113 18 -39 19 -188 19 -4252 0 -4210 0 -4213 20 -4213 20 0 20 3
18 4228 l-3 4227 -22 41 c-29 54 -93 109 -151 128 -41 14 -475 16 -4264 16
-4208 0 -4218 0 -4218 -20z"/>
</g>
</svg>
